<svg width="512" height="512" viewBox="0 0 512 512" fill="none" xmlns="http://www.w3.org/2000/svg">
  <rect width="512" height="512" rx="110" fill="url(#gradient)"/>
  <defs>
    <linearGradient id="gradient" x1="0" y1="0" x2="512" y2="512" gradientUnits="userSpaceOnUse">
      <stop offset="0%" stop-color="#ea580c"/>
      <stop offset="100%" stop-color="#c2410c"/>
    </linearGradient>
  </defs>
  <path d="M256 96c-17.7 0-32 14.3-32 32v32h-32c-17.7 0-32 14.3-32 32v192c0 17.7 14.3 32 32 32h128c17.7 0 32-14.3 32-32V192c0-17.7-14.3-32-32-32h-32v-32c0-17.7-14.3-32-32-32zm-48 160c0-8.8 7.2-16 16-16h64c8.8 0 16 7.2 16 16s-7.2 16-16 16h-64c-8.8 0-16-7.2-16-16zm0 48c0-8.8 7.2-16 16-16h64c8.8 0 16 7.2 16 16s-7.2 16-16 16h-64c-8.8 0-16-7.2-16-16z" fill="white" fill-opacity="0.95"/>
  <path d="M320 100l32 40-32 40v-80z" fill="white" fill-opacity="0.9"/>
  <path d="M310 115l20 25-20 25v-50z" fill="#fef3c7"/>
</svg>
