<svg width="512" height="512" viewBox="0 0 512 512" fill="none" xmlns="http://www.w3.org/2000/svg">
  <!-- Background with orange gradient -->
  <rect width="512" height="512" rx="110" fill="url(#gradient)"/>
  <defs>
    <linearGradient id="gradient" x1="0" y1="0" x2="512" y2="512" gradientUnits="userSpaceOnUse">
      <stop offset="0%" stop-color="#f97316"/>
      <stop offset="100%" stop-color="#ea580c"/>
    </linearGradient>
  </defs>
  
  <!-- Shield shape -->
  <path d="M256 80 L140 130 L140 250 Q140 360 256 432 Q372 360 372 250 L372 130 Z" 
        fill="white" fill-opacity="0.15" stroke="white" stroke-width="8" stroke-opacity="0.3"/>
  
  <!-- Fire/Flame icon -->
  <path d="M256 160 C248 160 240 165 240 180 C240 190 245 195 250 205 C255 220 260 235 270 245 C280 260 290 270 300 275 C310 280 320 280 330 275 C335 265 335 255 330 245 C345 250 355 260 360 275 C370 275 375 270 375 260 C375 245 370 230 360 215 C350 200 335 190 320 185 C325 175 325 165 320 155 C310 150 300 145 285 145 C270 145 260 150 256 160 Z" 
        fill="white" fill-opacity="0.95" 
        transform="translate(0, 20)"/>
</svg>
